<svg width="32" height="33" viewBox="0 0 32 33" fill="none" xmlns="http://www.w3.org/2000/svg">
<path fill-rule="evenodd" clip-rule="evenodd" d="M16 28.5C22.6274 28.5 28 23.1273 28 16.5C28 9.87263 22.6274 4.49996 16 4.49996C9.37269 4.49996 4.00002 9.87263 4.00002 16.5C4.00002 23.1273 9.37269 28.5 16 28.5ZM16 29.8333C23.364 29.8333 29.3334 23.864 29.3334 16.5C29.3334 9.13596 23.364 3.16663 16 3.16663C8.63602 3.16663 2.66669 9.13596 2.66669 16.5C2.66669 23.864 8.63602 29.8333 16 29.8333Z" fill="black"/>
<path d="M8 24.2533C8 23.5646 8.51467 22.9826 9.2 22.9066C14.3433 22.3373 17.68 22.3886 22.812 22.9193C23.0683 22.9462 23.3112 23.0472 23.511 23.2099C23.7108 23.3725 23.859 23.5899 23.9373 23.8354C24.0157 24.0809 24.0208 24.3439 23.9521 24.5922C23.8835 24.8406 23.744 25.0636 23.5507 25.234C17.494 30.5133 14.0327 30.4406 8.42667 25.2393C8.15333 24.986 8 24.626 8 24.254V24.2533Z" fill="black"/>
<path fill-rule="evenodd" clip-rule="evenodd" d="M22.7434 23.582C17.652 23.0553 14.3634 23.006 9.27271 23.5693C9.10514 23.5888 8.95066 23.6695 8.83885 23.7958C8.72703 23.9221 8.66574 24.0853 8.66671 24.254C8.66671 24.4446 8.74604 24.6253 8.88004 24.7506C11.6587 27.328 13.764 28.4926 15.822 28.5C17.8874 28.5073 20.106 27.352 23.1127 24.732C23.2082 24.647 23.277 24.536 23.3106 24.4127C23.3443 24.2893 23.3414 24.1588 23.3023 24.0371C23.2631 23.9153 23.1895 23.8076 23.0903 23.7269C22.9911 23.6462 22.8705 23.5961 22.7434 23.5826V23.582ZM9.12671 22.244C14.324 21.6686 17.7094 21.7206 22.8814 22.256C23.2669 22.2962 23.6323 22.448 23.933 22.6927C24.2336 22.9375 24.4563 23.2645 24.5739 23.6339C24.6914 24.0033 24.6988 24.3989 24.595 24.7724C24.4912 25.1458 24.2807 25.4809 23.9894 25.7366C20.9394 28.3953 18.3994 29.8433 15.818 29.8333C13.2294 29.824 10.8014 28.3513 7.97404 25.728C7.77161 25.5394 7.61024 25.3112 7.50001 25.0574C7.38977 24.8037 7.33305 24.53 7.33338 24.2533C7.33241 23.7563 7.51485 23.2763 7.84575 22.9054C8.17666 22.5346 8.63277 22.2988 9.12671 22.2433V22.244Z" fill="black"/>
<path d="M21.3334 13.8333C21.3334 15.2478 20.7715 16.6044 19.7713 17.6046C18.7711 18.6048 17.4145 19.1667 16 19.1667C14.5855 19.1667 13.229 18.6048 12.2288 17.6046C11.2286 16.6044 10.6667 15.2478 10.6667 13.8333C10.6667 12.4188 11.2286 11.0623 12.2288 10.0621C13.229 9.0619 14.5855 8.5 16 8.5C17.4145 8.5 18.7711 9.0619 19.7713 10.0621C20.7715 11.0623 21.3334 12.4188 21.3334 13.8333Z" fill="black"/>
<path fill-rule="evenodd" clip-rule="evenodd" d="M16 17.8333C17.0609 17.8333 18.0783 17.4119 18.8284 16.6618C19.5786 15.9116 20 14.8942 20 13.8333C20 12.7725 19.5786 11.7551 18.8284 11.0049C18.0783 10.2548 17.0609 9.83333 16 9.83333C14.9392 9.83333 13.9217 10.2548 13.1716 11.0049C12.4214 11.7551 12 12.7725 12 13.8333C12 14.8942 12.4214 15.9116 13.1716 16.6618C13.9217 17.4119 14.9392 17.8333 16 17.8333ZM16 19.1667C17.4145 19.1667 18.7711 18.6048 19.7713 17.6046C20.7715 16.6044 21.3334 15.2478 21.3334 13.8333C21.3334 12.4188 20.7715 11.0623 19.7713 10.0621C18.7711 9.0619 17.4145 8.5 16 8.5C14.5855 8.5 13.229 9.0619 12.2288 10.0621C11.2286 11.0623 10.6667 12.4188 10.6667 13.8333C10.6667 15.2478 11.2286 16.6044 12.2288 17.6046C13.229 18.6048 14.5855 19.1667 16 19.1667Z" fill="black"/>
</svg>
